<svg xmlns="http://www.w3.org/2000/svg" height="20" viewBox="0 -960 960 960" width="20"><path d="M222.309-138.001q-38.623 0-64.465-25.843-25.843-25.842-25.843-64.465v-513.382q0-38.623 25.843-64.465 25.842-25.843 64.465-25.843h157q8.769-29.307 36.076-51.653 27.308-22.347 64.615-22.347 37.692 0 64.999 22.347 27.308 22.346 35.692 51.653h157q38.623 0 64.465 25.843 25.843 25.842 25.843 64.465v257.998q-18.869-8.067-37.677-12.611-18.807-4.545-40.322-8.08v-237.307q0-4.616-3.846-8.463-3.847-3.846-8.463-3.846H222.309q-4.616 0-8.463 3.846-3.846 3.847-3.846 8.463v513.382q0 4.616 3.846 8.463 3.847 3.846 8.463 3.846h209.307q.105 21.131 2.052 40.18 1.947 19.05 7.255 37.819H222.309ZM210-220v4V-754-504.384v-3V-220Zm72.001-65.616h156.692q5.615-21.615 12.459-40.389 6.845-18.773 18.541-37.61H282.001v77.999Zm0-160.385h261.616q25.846-21.922 57.152-36.23 31.307-14.307 68.768-17.538v-24.23H282.001v77.998Zm0-160.384h395.998v-77.999H282.001v77.999ZM480-780.154q10.4 0 17.2-6.8 6.8-6.8 6.8-17.2 0-10.4-6.8-17.2-6.8-6.8-17.2-6.8-10.4 0-17.2 6.8-6.8 6.8-6.8 17.2 0 10.4 6.8 17.2 6.8 6.8 17.2 6.8Zm239.774 762.46q-83.316 0-141.545-58.454-58.228-58.454-58.228-141.77 0-83.317 58.455-141.545 58.454-58.228 141.77-58.228t141.545 58.454q58.228 58.455 58.228 141.771 0 83.316-58.455 141.544-58.454 58.228-141.77 58.228ZM694.308-118h49.384v-74h74v-49.384h-74v-74h-49.384v74h-74V-192h74v74Z"/></svg>