<?xml version="1.0" encoding="UTF-8" standalone="no"?>
<svg
   height="24"
   viewBox="0 -960 960 960"
   width="24"
   version="1.1"
   id="svg1"
   sodipodi:docname="assignment_add_FILL0_wght400_GRAD0_opsz24 white.svg"
   inkscape:version="1.3.2 (091e20e, 2023-11-25, custom)"
   xmlns:inkscape="http://www.inkscape.org/namespaces/inkscape"
   xmlns:sodipodi="http://sodipodi.sourceforge.net/DTD/sodipodi-0.dtd"
   xmlns="http://www.w3.org/2000/svg"
   xmlns:svg="http://www.w3.org/2000/svg">
  <defs
     id="defs1" />
  <sodipodi:namedview
     id="namedview1"
     pagecolor="#ffffff"
     bordercolor="#000000"
     borderopacity="0.25"
     inkscape:showpageshadow="2"
     inkscape:pageopacity="0.0"
     inkscape:pagecheckerboard="0"
     inkscape:deskcolor="#d1d1d1"
     inkscape:zoom="33.875"
     inkscape:cx="12"
     inkscape:cy="7.2767528"
     inkscape:window-width="1920"
     inkscape:window-height="1009"
     inkscape:window-x="-8"
     inkscape:window-y="-8"
     inkscape:window-maximized="1"
     inkscape:current-layer="svg1" />
  <path
     d="M200-120q-33 0-56.5-23.5T120-200v-560q0-33 23.5-56.5T200-840h168q13-36 43.5-58t68.5-22q38 0 68.5 22t43.5 58h168q33 0 56.5 23.5T840-760v268q-19-9-39-15.5t-41-9.5v-243H200v560h242q3 22 9.5 42t15.5 38H200Zm0-120v40-560 243-3 280Zm80-40h163q3-21 9.5-41t14.5-39H280v80Zm0-160h244q32-30 71.5-50t84.5-27v-3H280v80Zm0-160h400v-80H280v80Zm200-190q13 0 21.5-8.5T510-820q0-13-8.5-21.5T480-850q-13 0-21.5 8.5T450-820q0 13 8.5 21.5T480-790ZM720-40q-83 0-141.5-58.5T520-240q0-83 58.5-141.5T720-440q83 0 141.5 58.5T920-240q0 83-58.5 141.5T720-40Zm-20-80h40v-100h100v-40H740v-100h-40v100H600v40h100v100Z"
     id="path1" />
  <path
     style="fill:#000000;stroke-width:0.0295203"
     d="M 4.5904059,20.942679 C 3.8599239,20.798793 3.1945052,20.123741 3.054814,19.384857 2.9888271,19.035826 2.9888271,4.9641745 3.054814,4.615143 3.1645963,4.034459 3.5883886,3.491569 4.1476015,3.2152505 4.5587132,3.0121118 4.5734007,3.0110701 7.0265491,3.0110701 H 9.2065759 L 9.3408428,2.7276305 C 9.7270961,1.9122416 10.428218,1.3288636 11.291764,1.1043397 c 0.420997,-0.10946001 0.990061,-0.1095718 1.416723,-2.783e-4 0.517473,0.1325556 0.946998,0.3796362 1.353557,0.7786216 0.264472,0.259546 0.432311,0.4970473 0.597113,0.8449475 l 0.134267,0.2834396 h 2.180027 c 2.454535,0 2.468403,9.857e-4 2.878948,0.2046355 0.414021,0.2053743 0.727927,0.519188 0.93217,0.9318959 0.210912,0.4261848 0.204361,0.2944531 0.204361,4.1090763 0,2.7165162 -0.0075,3.4070772 -0.0369,3.3950212 -0.787742,-0.323089 -1.187874,-0.453819 -1.653137,-0.54011 L 19.01107,11.058208 V 8.0235687 4.9889299 H 12 4.9889299 V 12 19.01107 h 3.0215132 3.0215129 l 0.06494,0.344928 c 0.0755,0.400991 0.222401,0.87268 0.40505,1.300558 0.07098,0.166271 0.129048,0.309076 0.129048,0.317343 0,0.0083 -1.537638,0.01378 -3.4169739,0.01226 -2.7755696,-0.0023 -3.4557632,-0.01041 -3.6236162,-0.04348 z M 12.414865,4.146821 c 0.0895,-0.055349 0.178452,-0.1443215 0.233801,-0.2338473 0.08242,-0.133305 0.08934,-0.1654588 0.08934,-0.4148187 0,-0.2493599 -0.0069,-0.2815137 -0.08934,-0.4148187 C 12.59329,2.9937673 12.504388,2.9048651 12.414819,2.8494889 12.281514,2.7670727 12.24936,2.7601476 12,2.7601476 c -0.24936,0 -0.281514,0.00693 -0.414819,0.089341 -0.214146,0.1323962 -0.319583,0.3195533 -0.333324,0.5916678 -0.01798,0.3561229 0.106236,0.5936256 0.383816,0.7338411 0.139461,0.070447 0.185252,0.078584 0.396208,0.070409 0.204859,-0.00794 0.258913,-0.021853 0.382984,-0.098585 z"
     id="path2"
     transform="matrix(40,0,0,40,0,-960)" />
  <path
     style="fill:#000000;stroke-width:0.0295203"
     d="m 17.52365,22.964244 c -1.24765,-0.117549 -2.30173,-0.645428 -3.188858,-1.596968 -0.611574,-0.655979 -0.996688,-1.376649 -1.196017,-2.238125 -0.202029,-0.87315 -0.139791,-1.992733 0.15624,-2.81053 0.498196,-1.376289 1.644712,-2.524467 3.01675,-3.021125 0.441016,-0.159641 0.926682,-0.248344 1.474213,-0.269253 0.918467,-0.03507 1.649439,0.114525 2.420664,0.495406 1.141295,0.563646 2.092154,1.636462 2.507153,2.828724 0.348895,1.00235 0.354226,2.242217 0.01402,3.261265 -0.430531,1.289613 -1.533319,2.469671 -2.798729,2.994829 -0.717529,0.297781 -1.61387,0.430355 -2.405438,0.355777 z m 0.985575,-3.200406 v -1.254613 h 1.254613 1.254612 V 17.99262 17.476015 H 19.763838 18.509225 V 16.236162 14.99631 H 17.99262 17.476015 v 1.239852 1.239853 H 16.236162 14.99631 v 0.516605 0.516605 h 1.239852 1.239853 v 1.254613 1.254612 h 0.516605 0.516605 z"
     id="path3"
     transform="matrix(40,0,0,40,0,-960)" />
  <path
     style="fill:#f9f9f9;stroke-width:0.0295203"
     d="m 17.52365,22.964244 c -1.24765,-0.117549 -2.30173,-0.645428 -3.188858,-1.596968 -0.611574,-0.655979 -0.996688,-1.376649 -1.196017,-2.238125 -0.199759,-0.863336 -0.140822,-1.974133 0.148191,-2.792987 0.414698,-1.174953 1.358842,-2.2396 2.489835,-2.807619 0.631363,-0.31709 1.250832,-0.471342 2.009177,-0.500302 0.918467,-0.03507 1.649439,0.114525 2.420664,0.495406 1.141295,0.563646 2.092154,1.636462 2.507153,2.828724 0.397737,1.142668 0.350217,2.527512 -0.124269,3.621494 -0.514302,1.185783 -1.586258,2.223708 -2.766911,2.679071 -0.686999,0.264967 -1.550187,0.381852 -2.298965,0.311306 z m 0.985575,-3.200406 v -1.254613 h 1.254613 1.254612 V 17.99262 17.476015 H 19.763838 18.509225 V 16.236162 14.99631 H 17.99262 17.476015 v 1.239852 1.239853 H 16.236162 14.99631 v 0.516605 0.516605 h 1.239852 1.239853 v 1.254613 1.254612 h 0.516605 0.516605 z"
     id="path4"
     transform="matrix(40,0,0,40,0,-960)" />
  <path
     style="fill:#f9f9f9;stroke-width:0.0295203"
     d="M 4.5904059,20.942679 C 3.9168092,20.809998 3.2945624,20.227 3.0801385,19.527675 3.0280273,19.357719 3.0258303,19.053183 3.0258303,12 c 0,-7.0531832 0.0022,-7.357719 0.054308,-7.5276753 0.198808,-0.6483953 0.7178531,-1.17267 1.3774261,-1.3913043 0.1504731,-0.049879 0.3303255,-0.054497 2.4562494,-0.063073 l 2.2938878,-0.00925 0.133704,-0.2822513 c 0.412348,-0.8704755 1.1845104,-1.4753196 2.1272294,-1.6662839 0.228094,-0.046204 0.834636,-0.046204 1.06273,0 0.601613,0.1218673 1.077055,0.3773507 1.530679,0.8225248 0.264242,0.2593201 0.432296,0.4970152 0.59655,0.8437591 l 0.133704,0.2822513 2.293888,0.00925 c 2.552287,0.010296 2.390752,-0.00219 2.810493,0.2171694 0.388564,0.2030623 0.688205,0.5111405 0.887495,0.9124849 0.211362,0.4256558 0.204756,0.2930775 0.204756,4.1090763 0,2.716516 -0.0075,3.407077 -0.0369,3.395021 -0.785442,-0.322145 -1.183921,-0.452083 -1.653137,-0.539062 L 19.01107,11.059283 V 8.0241066 4.9889299 H 12 4.9889299 V 12 19.01107 h 3.0215132 3.0215129 l 0.06255,0.332103 c 0.07526,0.3996 0.229082,0.89597 0.406088,1.310381 0.07172,0.167923 0.130407,0.312078 0.130407,0.320345 0,0.0083 -1.537638,0.01378 -3.4169739,0.01226 -2.7755696,-0.0023 -3.4557632,-0.01041 -3.6236162,-0.04348 z M 12.414865,4.146821 c 0.220279,-0.1362315 0.320463,-0.3194033 0.333677,-0.6100819 0.0092,-0.2033558 9.35e-4,-0.2513532 -0.06786,-0.3919657 -0.138918,-0.2839384 -0.390588,-0.414934 -0.757359,-0.3942097 -0.252179,0.01425 -0.443973,0.1257111 -0.571643,0.3322127 -0.07287,0.1178597 -0.09096,0.1828066 -0.09982,0.3583803 -0.01798,0.3561229 0.106236,0.5936256 0.383816,0.7338411 0.139461,0.070447 0.185252,0.078584 0.396208,0.070409 0.204859,-0.00794 0.258913,-0.021853 0.382984,-0.098585 z"
     id="path5"
     transform="matrix(40,0,0,40,0,-960)" />
  <path
     style="fill:#f9f9f9;stroke-width:0.0295203"
     d="M 7.0258303,8 V 7.0258303 H 12 16.97417 V 8 8.9741697 H 12 7.0258303 Z"
     id="path6"
     transform="matrix(40,0,0,40,0,-960)" />
  <path
     style="fill:#f9f9f9;stroke-width:0.0295203"
     d="M 7.0258303,12 V 11.01107 H 12 c 2.735793,0 4.97417,0.01133 4.97417,0.02519 0,0.01385 -0.122878,0.04864 -0.273063,0.0773 -1.216495,0.232139 -2.414488,0.826285 -3.408354,1.690378 L 13.07997,12.98893 H 10.0529 7.0258303 Z"
     id="path7"
     transform="matrix(40,0,0,40,0,-960)" />
  <path
     style="fill:#f9f9f9;stroke-width:0.0295203"
     d="m 7.0258303,16 v -0.97417 h 2.3057413 c 1.9430904,0 2.3032944,0.0064 2.2901814,0.04055 -0.265968,0.693104 -0.438576,1.248781 -0.511189,1.645674 l -0.04795,0.262118 H 9.0442197 7.0258303 Z"
     id="path8"
     transform="matrix(40,0,0,40,0,-960)" />
  <path
     style="fill:#f9f9f9;stroke-width:0.0295203"
     d="M 17.387454,22.934624 C 16.796027,22.858557 16.282137,22.699354 15.763838,22.43163 15.277992,22.180668 14.916763,21.91291 14.494541,21.490775 13.8151,20.811474 13.402529,20.09999 13.18501,19.232472 13.078228,18.806603 13.0479,18.535569 13.048511,18.012624 c 0.0015,-1.318302 0.377299,-2.320427 1.238045,-3.301791 0.701233,-0.799498 1.642925,-1.351202 2.697522,-1.580379 0.263203,-0.0572 0.388883,-0.06528 1.023302,-0.06578 0.64031,-5.09e-4 0.757737,0.007 1.024012,0.06535 0.622126,0.136366 1.291753,0.430909 1.809936,0.79612 0.358055,0.252354 0.960456,0.855286 1.216697,1.217768 0.237818,0.336422 0.51601,0.865352 0.637458,1.212005 0.375986,1.073188 0.348267,2.452443 -0.06995,3.480609 -0.281911,0.693065 -0.809078,1.42607 -1.370175,1.905172 -0.816933,0.697554 -1.583085,1.043639 -2.614094,1.180836 -0.348249,0.04634 -0.942923,0.05208 -1.25381,0.01209 z m 1.121771,-3.170786 v -1.254613 h 1.254613 1.254612 V 17.99262 17.476015 H 19.763838 18.509225 V 16.236162 14.99631 H 17.99262 17.476015 v 1.239852 1.239853 H 16.236162 14.99631 v 0.516605 0.516605 h 1.239852 1.239853 v 1.254613 1.254612 h 0.516605 0.516605 z"
     id="path9"
     transform="matrix(40,0,0,40,0,-960)" />
  <path
     style="fill:#f9f9f9;stroke-width:0.0295203"
     d="M 17.387454,22.934624 C 16.402261,22.807912 15.499111,22.4009 14.757939,21.74961 c -0.84829,-0.745417 -1.384652,-1.644575 -1.62903,-2.730909 -0.05724,-0.254455 -0.06474,-0.372479 -0.06423,-1.011321 6.29e-4,-0.796131 0.03519,-1.045884 0.222267,-1.606258 0.468527,-1.403426 1.730743,-2.660929 3.129811,-3.118123 0.571542,-0.186771 0.79684,-0.217695 1.590626,-0.218327 0.64031,-5.09e-4 0.757737,0.007 1.024012,0.06535 1.477197,0.323793 2.749558,1.324865 3.441377,2.707615 0.481374,0.962132 0.614308,2.111359 0.376239,3.252628 -0.320765,1.537701 -1.529048,2.946664 -3.04089,3.545944 -0.668845,0.265124 -1.695477,0.391685 -2.420664,0.298414 z m 1.121771,-3.170786 v -1.254613 h 1.254613 1.254612 V 17.99262 17.476015 H 19.763838 18.509225 V 16.236162 14.99631 H 17.99262 17.476015 v 1.239852 1.239853 H 16.236162 14.99631 v 0.516605 0.516605 h 1.239852 1.239853 v 1.254613 1.254612 h 0.516605 0.516605 z"
     id="path10"
     transform="matrix(40,0,0,40,0,-960)" />
  <path
     style="fill:#f9f9f9;stroke-width:0.0295203"
     d="m 17.387454,22.934624 c -0.105535,-0.01357 -0.323136,-0.05273 -0.483557,-0.08701 -1.640626,-0.350588 -3.105377,-1.685082 -3.632781,-3.309727 -0.183168,-0.56424 -0.208557,-0.75384 -0.206922,-1.54527 0.0016,-0.779668 0.03762,-1.03697 0.222749,-1.591498 0.466784,-1.398205 1.715433,-2.647205 3.112865,-3.113739 0.561755,-0.187542 0.811036,-0.222077 1.607572,-0.222711 0.798917,-6.35e-4 1.039256,0.03287 1.584898,0.220932 1.602388,0.552289 2.906766,1.997095 3.251612,3.601678 0.295818,1.376452 0.05577,2.709606 -0.688033,3.821171 -0.714427,1.06766 -1.752697,1.820915 -2.891765,2.09795 -0.59793,0.145423 -1.345668,0.196512 -1.876638,0.128221 z m 1.121771,-3.170786 v -1.254613 h 1.254613 1.254612 V 17.99262 17.476015 H 19.763838 18.509225 V 16.236162 14.99631 H 17.99262 17.476015 v 1.239852 1.239853 H 16.236162 14.99631 v 0.516605 0.516605 h 1.239852 1.239853 v 1.254613 1.254612 h 0.516605 0.516605 z"
     id="path11"
     transform="matrix(40,0,0,40,0,-960)" />
  <path
     style="fill:#f9f9f9;stroke-width:0.0295203"
     d="m 17.387454,22.934604 c -1.656002,-0.213158 -3.105701,-1.251097 -3.851401,-2.757482 -0.37497,-0.757477 -0.504345,-1.381676 -0.480303,-2.317343 0.02699,-1.050362 0.247657,-1.772229 0.786456,-2.572717 0.774593,-1.150803 1.925942,-1.929848 3.205764,-2.169137 0.418916,-0.07832 1.534279,-0.07907 1.917749,-0.0013 0.422889,0.08578 0.799479,0.216631 1.211403,0.420903 1.161218,0.575845 2.096619,1.625139 2.521163,2.828139 0.285004,0.807597 0.342725,1.852871 0.151105,2.736397 -0.337213,1.554826 -1.584919,2.990978 -3.091027,3.557876 -0.654451,0.246334 -1.673644,0.364398 -2.370909,0.274647 z m 1.121771,-3.170766 v -1.254613 h 1.254613 1.254612 V 17.99262 17.476015 H 19.763838 18.509225 V 16.236162 14.99631 H 17.99262 17.476015 v 1.239852 1.239853 H 16.236162 14.99631 v 0.516605 0.516605 h 1.239852 1.239853 v 1.254613 1.254612 h 0.516605 0.516605 z"
     id="path12"
     transform="matrix(40,0,0,40,0,-960)" />
  <path
     style="fill:#f9f9f9;stroke-width:0.0295203"
     d="m 17.357934,22.934974 c -0.909828,-0.115359 -1.77882,-0.498597 -2.509848,-1.106877 -0.952179,-0.792299 -1.586949,-1.896264 -1.757964,-3.057376 -0.06666,-0.452612 -0.04403,-1.379672 0.04418,-1.809635 0.123902,-0.603932 0.351496,-1.143254 0.705897,-1.672739 0.767326,-1.146405 1.926795,-1.930918 3.20777,-2.170422 0.421886,-0.07888 1.569046,-0.07898 1.93358,-1.69e-4 0.649748,0.140475 1.336085,0.438595 1.859778,0.80782 0.391987,0.276367 0.993756,0.887266 1.258286,1.277376 0.626109,0.92334 0.902574,1.888577 0.858209,2.99631 -0.01914,0.477941 -0.07364,0.81995 -0.199391,1.251346 -0.40728,1.39717 -1.615602,2.687995 -3.006446,3.21172 -0.655667,0.246892 -1.678478,0.363375 -2.394052,0.272646 z m 1.151291,-3.171136 v -1.254613 h 1.254613 1.254612 V 17.99262 17.476015 H 19.763838 18.509225 V 16.236162 14.99631 H 17.99262 17.476015 v 1.239852 1.239853 H 16.236162 14.99631 v 0.516605 0.516605 h 1.239852 1.239853 v 1.254613 1.254612 h 0.516605 0.516605 z"
     id="path13"
     transform="matrix(40,0,0,40,0,-960)" />
  <path
     style="fill:#f9f9f9;stroke-width:0.0295203"
     d="m 17.357934,22.934974 c -0.909828,-0.115359 -1.77882,-0.498597 -2.509848,-1.106877 -0.952179,-0.792299 -1.586949,-1.896264 -1.757964,-3.057376 -0.06666,-0.452612 -0.04403,-1.379672 0.04418,-1.809635 0.123899,-0.603919 0.35126,-1.142686 0.706246,-1.673556 0.834476,-1.247934 2.114701,-2.053255 3.5169,-2.212293 0.405732,-0.04602 1.351869,-0.01889 1.653621,0.04741 1.487832,0.326902 2.764261,1.323836 3.452022,2.696147 0.366327,0.730943 0.529375,1.515472 0.494731,2.380473 -0.0356,0.888809 -0.259964,1.647884 -0.697237,2.358875 -0.582629,0.947337 -1.515709,1.730497 -2.505756,2.103149 -0.658858,0.247994 -1.67997,0.364589 -2.396896,0.273688 z m 1.151291,-3.171136 v -1.254613 h 1.254613 1.254612 V 17.99262 17.476015 H 19.763838 18.509225 V 16.236162 14.99631 H 17.99262 17.476015 v 1.239852 1.239853 H 16.236162 14.99631 v 0.516605 0.516605 h 1.239852 1.239853 v 1.254613 1.254612 h 0.516605 0.516605 z"
     id="path14"
     transform="matrix(40,0,0,40,0,-960)" />
  <path
     style="fill:#f9f9f9;stroke-width:0.0295203"
     d="m 17.267261,22.921624 c -1.612039,-0.251315 -3.00377,-1.275007 -3.731208,-2.744502 -0.344459,-0.695841 -0.488083,-1.328466 -0.488083,-2.149878 0,-0.950252 0.166683,-1.650261 0.563554,-2.366727 0.683068,-1.233135 1.854378,-2.15529 3.147643,-2.478093 0.445511,-0.111201 0.835413,-0.14447 1.469131,-0.125358 0.771028,0.02325 1.23696,0.133778 1.89201,0.44881 0.539205,0.259319 0.917732,0.531756 1.370854,0.986646 1.040397,1.044454 1.524305,2.267452 1.466661,3.70674 -0.04713,1.176785 -0.424571,2.132334 -1.203693,3.047335 -0.508765,0.597495 -1.278862,1.143517 -1.990656,1.411436 -0.702244,0.264324 -1.768972,0.376966 -2.496213,0.263591 z m 1.241964,-3.157786 v -1.254613 h 1.254613 1.254612 V 17.99262 17.476015 H 19.763838 18.509225 V 16.236162 14.99631 H 17.99262 17.476015 v 1.239852 1.239853 H 16.236162 14.99631 v 0.516605 0.516605 h 1.239852 1.239853 v 1.254613 1.254612 h 0.516605 0.516605 z"
     id="path15"
     transform="matrix(40,0,0,40,0,-960)" />
  <path
     style="fill:#f9f9f9;stroke-width:0.0295203"
     d="M 17.505535,19.734317 V 18.479705 H 16.265683 15.02583 V 17.99262 17.505535 h 1.239853 1.239852 V 16.265683 15.02583 h 0.487085 0.487085 v 1.239853 1.239852 h 1.254612 1.254613 v 0.487085 0.487085 h -1.254613 -1.254612 v 1.254612 1.254613 H 17.99262 17.505535 Z"
     id="path16"
     transform="matrix(40,0,0,40,0,-960)" />
  <path
     style="fill:#f9f9f9;stroke-width:0.0295203"
     d="M 17.505535,19.734317 V 18.479705 H 16.265683 15.02583 V 17.99262 17.505535 h 1.239853 1.239852 V 16.265683 15.02583 h 0.487085 0.487085 v 1.239853 1.239852 h 1.254612 1.254613 v 0.487085 0.487085 h -1.254613 -1.254612 v 1.254612 1.254613 H 17.99262 17.505535 Z"
     id="path17"
     transform="matrix(40,0,0,40,0,-960)" />
  <path
     style="fill:#f9f9f9;stroke-width:0.0295203"
     d="M 17.505535,19.734317 V 18.479705 H 16.265683 15.02583 V 17.99262 17.505535 h 1.239853 1.239852 V 16.265683 15.02583 h 0.487085 0.487085 v 1.239853 1.239852 h 1.254612 1.254613 v 0.487085 0.487085 h -1.254613 -1.254612 v 1.254612 1.254613 H 17.99262 17.505535 Z"
     id="path18"
     transform="matrix(40,0,0,40,0,-960)" />
  <path
     style="fill:#f9f9f9;stroke-width:0.0295203"
     d="M 17.505535,19.734317 V 18.479705 H 16.265683 15.02583 V 17.99262 17.505535 h 1.239853 1.239852 V 16.265683 15.02583 h 0.487085 0.487085 v 1.239853 1.239852 h 1.254612 1.254613 v 0.487085 0.487085 h -1.254613 -1.254612 v 1.254612 1.254613 H 17.99262 17.505535 Z"
     id="path19"
     transform="matrix(40,0,0,40,0,-960)" />
  <path
     style="fill:#f9f9f9;stroke-width:0.0295203"
     d="M 4.6199262,20.927008 C 4.5077721,20.91105 4.3399668,20.851016 4.1624373,20.763335 3.9306405,20.648853 3.8381599,20.580954 3.6286028,20.371397 3.4177071,20.160502 3.3510485,20.069409 3.2317247,19.829044 L 3.0883141,19.540157 3.0634903,19.120632 c -0.013653,-0.230739 -0.02107,-3.601075 -0.016482,-7.489636 l 0.00834,-7.0701104 0.080007,-0.1996587 C 3.3567673,3.8086974 3.8155676,3.3510265 4.3632028,3.1364041 l 0.1976828,-0.077473 2.3253042,-0.019591 c 1.2789172,-0.010775 2.3301509,-0.024865 2.3360747,-0.03131 0.00592,-0.00645 0.073617,-0.1379184 0.1504307,-0.2921619 0.1755613,-0.3525336 0.3679935,-0.6144201 0.6443938,-0.8769731 0.273366,-0.2596708 0.428307,-0.3659503 0.767318,-0.5263308 0.465418,-0.2201812 0.666286,-0.2627138 1.230353,-0.2605197 0.441136,0.00172 0.511977,0.00941 0.750948,0.081574 0.509734,0.1539252 0.996884,0.4590717 1.376071,0.8619594 0.211073,0.2242656 0.312641,0.3750795 0.485091,0.7202906 0.07705,0.1542435 0.144739,0.2855133 0.150414,0.2917107 0.0057,0.0062 1.056909,0.020966 2.336075,0.032819 2.620744,0.024284 2.445164,0.00813 2.858934,0.2630462 0.520877,0.320903 0.898966,0.8692827 0.958554,1.390284 0.0262,0.2291165 0.04479,6.9013655 0.01929,6.9268605 -0.0057,0.0057 -0.141572,-0.04293 -0.301857,-0.108146 -0.423871,-0.172468 -0.895678,-0.319774 -1.282967,-0.400564 -0.186716,-0.03895 -0.342805,-0.07092 -0.346864,-0.07105 -0.0041,-1.29e-4 -0.0074,-1.3618586 -0.0074,-3.0260653 V 4.9889299 H 12 4.9889299 V 12 19.01107 h 3.0105077 3.0105074 l 0.01513,0.06642 c 0.0083,0.03653 0.04296,0.199262 0.07698,0.361623 0.07264,0.346691 0.25714,0.929952 0.399055,1.261514 0.0552,0.128971 0.100367,0.239958 0.100367,0.246637 0,0.02409 -6.8087483,0.0043 -6.9815498,-0.02026 z M 12.354244,4.1958477 c 0.151846,-0.069156 0.326861,-0.2636851 0.366874,-0.4077804 0.04999,-0.1800296 0.03802,-0.5092415 -0.02343,-0.6441559 -0.06916,-0.1518465 -0.263685,-0.3268615 -0.407781,-0.3668745 -0.166534,-0.046244 -0.49614,-0.038769 -0.622964,0.014127 -0.278778,0.116275 -0.418419,0.3522222 -0.418419,0.706991 0,0.3461156 0.113908,0.5534725 0.381906,0.695215 0.144716,0.07654 0.558083,0.077955 0.723809,0.00248 z"
     id="path20"
     transform="matrix(40,0,0,40,0,-960)" />
  <path
     style="fill:#f9f9f9;stroke-width:0.0295203"
     d="M 4.6199262,20.927008 C 4.5077721,20.91105 4.3399668,20.851016 4.1624373,20.763335 3.9306405,20.648853 3.8381599,20.580954 3.6286028,20.371397 3.4177071,20.160502 3.3510485,20.069409 3.2317247,19.829044 L 3.0883141,19.540157 3.0635173,19.120632 c -0.013638,-0.230739 -0.021055,-3.601075 -0.016482,-7.489636 l 0.00832,-7.0701104 0.080007,-0.1996587 C 3.3567673,3.8086974 3.8155676,3.3510265 4.3632028,3.1364041 L 4.5608856,3.0589308 6.8861898,3.0393395 C 8.165107,3.0285643 9.2163489,3.0144747 9.2222828,3.0080291 9.2282167,3.0015836 9.2994896,2.8634686 9.3806672,2.701107 9.5605683,2.3412897 9.7300531,2.11155 10.015933,1.8399924 10.29047,1.5792083 10.445088,1.4730895 10.784407,1.3125633 11.249825,1.0923821 11.450693,1.0498495 12.01476,1.0520436 c 0.441136,0.00172 0.511977,0.00941 0.750948,0.081574 0.509734,0.1539252 0.996884,0.4590717 1.376071,0.8619594 0.211073,0.2242656 0.312641,0.3750795 0.485091,0.7202906 0.07705,0.1542435 0.144739,0.2855133 0.150414,0.2917107 0.0057,0.0062 1.056909,0.020966 2.336075,0.032819 2.620744,0.024284 2.445164,0.00813 2.858934,0.2630462 0.520877,0.320903 0.898966,0.8692827 0.958554,1.390284 0.0262,0.2291165 0.04479,6.9013655 0.01929,6.9268605 -0.0057,0.0057 -0.141572,-0.04293 -0.301857,-0.108146 -0.423871,-0.172468 -0.895678,-0.319774 -1.282967,-0.400564 -0.186716,-0.03895 -0.342805,-0.07092 -0.346864,-0.07105 -0.0041,-1.29e-4 -0.0074,-1.3618586 -0.0074,-3.0260653 V 4.9889299 H 12 4.9889299 V 12 19.01107 h 3.0105077 3.0105074 l 0.01473,0.06642 c 0.0081,0.03653 0.04917,0.223814 0.09126,0.416185 0.07836,0.358122 0.246472,0.8799 0.399542,1.240042 0.0473,0.111295 0.08601,0.207605 0.08601,0.214023 0,0.02377 -6.8109368,0.0035 -6.9815498,-0.02073 z M 12.357807,4.190157 c 0.160597,-0.077744 0.323225,-0.2577296 0.363311,-0.4020897 0.05347,-0.1925729 0.03937,-0.5062358 -0.02912,-0.647719 -0.07774,-0.1605972 -0.25773,-0.3232249 -0.40209,-0.3633114 -0.144748,-0.040194 -0.435076,-0.040194 -0.579824,0 -0.144096,0.040013 -0.338624,0.215028 -0.407781,0.3668745 -0.06144,0.1349144 -0.07342,0.4641263 -0.02343,0.6441559 0.04001,0.1440953 0.215028,0.3386241 0.366874,0.4077804 0.171723,0.078208 0.544899,0.075226 0.712051,-0.00569 z"
     id="path21"
     transform="matrix(40,0,0,40,0,-960)" />
  <path
     style="fill:#f9f9f9;stroke-width:0.0295203"
     d="M 4.639044,20.929063 C 4.2819695,20.877127 3.9436401,20.687838 3.6127074,20.354845 3.4179047,20.158829 3.3463573,20.059959 3.2306652,19.826909 L 3.0883141,19.540157 3.0635173,19.120632 c -0.013638,-0.230739 -0.020965,-3.601075 -0.016281,-7.489636 l 0.00852,-7.0701104 0.066436,-0.1749901 C 3.3272253,3.8458306 3.8026082,3.3623539 4.3520553,3.1350884 l 0.17931,-0.074167 2.3401621,-0.020684 C 8.1586164,3.0288608 9.2164921,3.0143233 9.2223622,3.0079315 9.228232,3.0015397 9.2960776,2.8701107 9.37313,2.7158672 9.5515699,2.3586656 9.6437349,2.2256545 9.8990329,1.956892 10.275501,1.5605696 10.712475,1.2915857 11.239066,1.1320221 11.475878,1.0602652 11.541305,1.053515 12,1.053515 c 0.460823,0 0.523414,0.00653 0.765708,0.079891 0.840129,0.2543684 1.522993,0.8473507 1.897754,1.6479618 l 0.107522,0.2297026 0.120043,0.00285 c 0.06602,0.00157 1.116353,0.012905 2.334065,0.025195 2.495375,0.025187 2.333802,0.00964 2.747201,0.264329 0.515594,0.3176486 0.899734,0.8709291 0.956614,1.3778212 0.02597,0.2314618 0.03654,1.9633446 0.03248,5.3218934 -0.0019,1.544397 -0.0048,1.632977 -0.05364,1.612703 -0.585649,-0.243194 -1.282176,-0.457665 -1.830258,-0.563562 l -0.06642,-0.01283 V 8.0141978 4.9889299 H 12 4.9889299 V 12 19.01107 h 3.0090807 c 2.8404704,0 3.0099104,0.0029 3.0238864,0.05166 0.0081,0.02841 0.03701,0.164575 0.06414,0.302583 0.06517,0.331448 0.220213,0.840104 0.37074,1.216288 0.06691,0.167204 0.128253,0.320612 0.13633,0.340907 0.0117,0.0294 -0.67706,0.03615 -3.3906876,0.03322 -1.872955,-0.002 -3.4764742,-0.01403 -3.5633764,-0.02666 z M 12.432135,4.146777 c 0.06991,-0.049162 0.166558,-0.1455239 0.214781,-0.2141378 0.07777,-0.1106535 0.0891,-0.154558 0.100288,-0.3884817 0.01089,-0.2276988 0.0037,-0.2821182 -0.05255,-0.3983294 -0.08237,-0.1701511 -0.260339,-0.3237059 -0.430341,-0.3713035 -0.07891,-0.022094 -0.22119,-0.031144 -0.354823,-0.022568 -0.258641,0.016599 -0.407443,0.099763 -0.555551,0.3104957 -0.07349,0.104571 -0.08885,0.1588236 -0.100015,0.3534192 -0.01656,0.2885295 0.02686,0.4524255 0.158429,0.5980562 0.173189,0.1916997 0.3067,0.2412838 0.622081,0.2310311 0.246326,-0.00801 0.281999,-0.016814 0.3977,-0.098182 z"
     id="path22"
     transform="matrix(40,0,0,40,0,-960)" />
  <path
     style="fill:#f9f9f9;stroke-width:0.0295203"
     d="M 4.632849,20.928043 C 4.0855822,20.847498 3.5127879,20.395217 3.2257376,19.816983 L 3.0883141,19.540157 3.0635183,19.120632 c -0.013638,-0.230739 -0.021055,-3.607717 -0.016482,-7.504396 l 0.00831,-7.0848707 0.089766,-0.2066421 C 3.3783803,3.7877462 3.8229205,3.3522251 4.3690037,3.1256667 l 0.1623616,-0.06736 2.199262,-0.020406 C 7.9402214,3.0266774 8.9969352,3.0160492 9.07888,3.0142825 L 9.2278704,3.0110701 9.3445627,2.7681287 C 9.5103495,2.4229765 9.6472387,2.2219658 9.8919168,1.9643836 10.275854,1.560198 10.70929,1.2924285 11.239066,1.1321391 11.47519,1.0606974 11.542638,1.0536925 12,1.0531119 c 0.463674,-5.885e-4 0.522053,0.00551 0.767528,0.080232 0.844197,0.256959 1.519113,0.8430111 1.894578,1.6451265 l 0.106166,0.2268058 0.505163,0.013313 c 0.277839,0.00732 1.242432,0.015606 2.143539,0.018408 1.965048,0.00611 2.081915,0.014953 2.408114,0.1821904 0.429133,0.2200106 0.730799,0.5257277 0.94524,0.9579335 0.106529,0.2147079 0.137376,0.3138252 0.160778,0.5166051 0.027,0.2339944 0.04549,6.9003978 0.01921,6.9266808 -0.0062,0.0062 -0.129512,-0.03638 -0.274013,-0.09463 -0.412538,-0.166313 -0.915306,-0.326446 -1.237191,-0.394049 -0.162361,-0.0341 -0.325092,-0.06881 -0.361623,-0.07713 l -0.06642,-0.01513 V 8.0141978 4.9889299 H 12 4.9889299 V 12 19.01107 h 3.0090807 c 2.8404704,0 3.0099104,0.0029 3.0238864,0.05166 0.0081,0.02841 0.03701,0.164575 0.06414,0.302583 0.06517,0.331448 0.220213,0.840104 0.37074,1.216288 0.06691,0.167204 0.128253,0.320612 0.13633,0.340907 0.0117,0.0294 -0.677087,0.03617 -3.3906876,0.0333 -1.872955,-0.002 -3.479262,-0.01448 -3.5695714,-0.02777 z M 12.434484,4.145071 c 0.06861,-0.048223 0.164026,-0.1435575 0.212026,-0.2118535 0.07565,-0.107643 0.08899,-0.1568461 0.100154,-0.3695899 0.0109,-0.2076815 0.0026,-0.2692257 -0.05374,-0.4002708 C 12.573096,2.8848012 12.34197,2.7453875 12,2.7453875 c -0.252432,0 -0.394629,0.053511 -0.546943,0.205825 -0.152932,0.1529327 -0.205902,0.2946857 -0.20566,0.5503674 2.5e-4,0.263829 0.04607,0.3851084 0.205894,0.5449284 0.174308,0.1743082 0.267889,0.2047079 0.598254,0.1943428 0.231777,-0.00727 0.270948,-0.01707 0.382939,-0.09578 z"
     id="path23"
     transform="matrix(40,0,0,40,0,-960)" />
  <path
     style="fill:#f9f9f9;stroke-width:0.0295203"
     d="M 11.668515,4.1610696 C 11.525592,4.0885945 11.376501,3.9306632 11.31734,3.7890729 11.26802,3.6710399 11.26457,3.3980806 11.31044,3.2449383 c 0.07984,-0.2664929 0.369549,-0.4691945 0.671367,-0.4697422 0.240431,-4.362e-4 0.384989,0.054993 0.536295,0.2056361 0.1624,0.1616884 0.217482,0.3281441 0.199909,0.6041197 -0.01444,0.2267049 -0.109912,0.3878134 -0.315457,0.5323049 -0.112369,0.078992 -0.155179,0.090416 -0.368179,0.098253 -0.199545,0.00734 -0.262511,-0.00203 -0.365868,-0.05444 z"
     id="path24"
     transform="matrix(40,0,0,40,0,-960)" />
</svg>
