<svg xmlns="http://www.w3.org/2000/svg" height="20" viewBox="0 -960 960 960" width="20"><path d="M222.309-138.001q-38.623 0-64.465-25.843-25.843-25.842-25.843-64.465v-513.382q0-38.623 25.843-64.465 25.842-25.843 64.465-25.843h157q8.769-29.307 36.076-51.653 27.308-22.347 64.615-22.347 37.692 0 64.999 22.347 27.308 22.346 35.692 51.653h157q38.623 0 64.465 25.843 25.843 25.842 25.843 64.465v513.382q0 38.623-25.843 64.465-25.842 25.843-64.465 25.843H222.309Zm0-77.999h515.382q4.616 0 8.463-3.846 3.846-3.847 3.846-8.463v-513.382q0-4.616-3.846-8.463-3.847-3.846-8.463-3.846H222.309q-4.616 0-8.463 3.846-3.846 3.847-3.846 8.463v513.382q0 4.616 3.846 8.463 3.847 3.846 8.463 3.846Zm59.692-69.616h297.998v-77.999H282.001v77.999Zm0-160.385h395.998v-77.998H282.001v77.998Zm0-160.384h395.998v-77.999H282.001v77.999ZM480-780.154q10.4 0 17.2-6.8 6.8-6.8 6.8-17.2 0-10.4-6.8-17.2-6.8-6.8-17.2-6.8-10.4 0-17.2 6.8-6.8 6.8-6.8 17.2 0 10.4 6.8 17.2 6.8 6.8 17.2 6.8ZM210-216V-754-216Z"/></svg>